<svg width="135" height="40" viewBox="0 0 135 40" fill="none" xmlns="http://www.w3.org/2000/svg">
<path d="M130 0H5C2.23858 0 0 2.23858 0 5V35C0 37.7614 2.23858 40 5 40H130C132.761 40 135 37.7614 135 35V5C135 2.23858 132.761 0 130 0Z" fill="black"/>
<path d="M130 0.8C131.114 0.8 132.182 1.2425 132.97 2.03015C133.758 2.8178 134.2 3.88609 134.2 5V35C134.2 36.1139 133.758 37.1822 132.97 37.9698C132.182 38.7575 131.114 39.2 130 39.2H5C3.88609 39.2 2.8178 38.7575 2.03015 37.9698C1.2425 37.1822 0.8 36.1139 0.8 35V5C0.8 3.88609 1.2425 2.8178 2.03015 2.03015C2.8178 1.2425 3.88609 0.8 5 0.8H130ZM130 0H5C3.67392 0 2.40215 0.526784 1.46447 1.46447C0.526784 2.40215 0 3.67392 0 5V35C0 36.3261 0.526784 37.5979 1.46447 38.5355C2.40215 39.4732 3.67392 40 5 40H130C131.326 40 132.598 39.4732 133.536 38.5355C134.473 37.5979 135 36.3261 135 35V5C135 3.67392 134.473 2.40215 133.536 1.46447C132.598 0.526784 131.326 0 130 0Z" fill="#A6A6A6"/>
<path d="M68.14 21.75C67.3003 21.7539 66.4806 22.0066 65.7843 22.476C65.088 22.9453 64.5464 23.6105 64.2278 24.3874C63.9092 25.1643 63.8279 26.0182 63.9941 26.8413C64.1603 27.6644 64.5667 28.4198 65.1618 29.0122C65.757 29.6046 66.5143 30.0074 67.3382 30.1697C68.162 30.3321 69.0155 30.2468 69.791 29.9245C70.5664 29.6023 71.229 29.0575 71.6951 28.3591C72.1612 27.6606 72.41 26.8397 72.41 26C72.4181 25.4379 72.3131 24.88 72.1012 24.3593C71.8892 23.8387 71.5746 23.366 71.1762 22.9695C70.7778 22.573 70.3037 22.2606 69.7821 22.0511C69.2604 21.8416 68.702 21.7392 68.14 21.75V21.75ZM68.14 28.58C67.6236 28.6161 67.1082 28.496 66.6609 28.2354C66.2137 27.9747 65.8552 27.5855 65.632 27.1184C65.4088 26.6513 65.3314 26.1279 65.4097 25.6161C65.4879 25.1044 65.7184 24.6281 66.0709 24.249C66.4235 23.87 66.882 23.6058 67.3867 23.4908C67.8915 23.3758 68.4192 23.4152 68.9012 23.6041C69.3832 23.7929 69.7972 24.1224 70.0895 24.5497C70.3818 24.977 70.5387 25.4823 70.54 26C70.5561 26.328 70.5063 26.6559 70.3937 26.9644C70.2811 27.2729 70.1078 27.5557 69.8841 27.7962C69.6604 28.0366 69.3909 28.2299 69.0913 28.3645C68.7918 28.4991 68.4683 28.5724 68.14 28.58ZM58.83 21.75C57.9898 21.752 57.1691 22.0029 56.4715 22.4711C55.7739 22.9393 55.2308 23.6037 54.9106 24.3805C54.5905 25.1573 54.5077 26.0115 54.6729 26.8352C54.838 27.659 55.2435 28.4153 55.8383 29.0087C56.4331 29.6021 57.1904 30.0059 58.0145 30.1691C58.8387 30.3322 59.6927 30.2475 60.4687 29.9255C61.2447 29.6036 61.9079 29.0588 62.3744 28.3601C62.841 27.6614 63.09 26.8401 63.09 26C63.0981 25.4379 62.9931 24.88 62.7812 24.3593C62.5692 23.8387 62.2546 23.366 61.8562 22.9695C61.4578 22.573 60.9837 22.2606 60.4621 22.0511C59.9404 21.8416 59.382 21.7392 58.82 21.75H58.83ZM58.83 28.58C58.3133 28.6181 57.7971 28.4999 57.3486 28.2406C56.9001 27.9812 56.5401 27.5929 56.3153 27.1261C56.0906 26.6593 56.0116 26.1356 56.0887 25.6233C56.1657 25.111 56.3952 24.6338 56.7473 24.2537C57.0994 23.8736 57.5577 23.6084 58.0626 23.4924C58.5676 23.3765 59.0957 23.4153 59.5783 23.6037C60.0609 23.7921 60.4756 24.1215 60.7684 24.5489C61.0612 24.9763 61.2186 25.4819 61.22 26C61.2361 26.328 61.1863 26.6559 61.0737 26.9644C60.9611 27.2729 60.7878 27.5557 60.5641 27.7962C60.3404 28.0366 60.0709 28.2299 59.7713 28.3645C59.4718 28.4991 59.1483 28.5724 58.82 28.58H58.83ZM47.74 23.06V24.86H52.06C51.9922 25.7078 51.6398 26.5078 51.06 27.13C50.6278 27.5702 50.1082 27.9151 49.5347 28.1425C48.9612 28.3698 48.3464 28.4746 47.73 28.45C46.4569 28.45 45.236 27.9443 44.3359 27.0441C43.4357 26.1439 42.93 24.923 42.93 23.65C42.93 22.377 43.4357 21.1561 44.3359 20.2559C45.236 19.3557 46.4569 18.85 47.73 18.85C48.9478 18.8301 50.1237 19.294 51 20.14L52.27 18.87C51.6785 18.271 50.9727 17.7969 50.1946 17.4757C49.4165 17.1544 48.5818 16.9927 47.74 17C46.851 16.9654 45.9641 17.1106 45.1326 17.427C44.3011 17.7433 43.5419 18.2243 42.9007 18.841C42.2595 19.4577 41.7494 20.1976 41.401 21.0162C41.0525 21.8348 40.8729 22.7153 40.8729 23.605C40.8729 24.4947 41.0525 25.3752 41.401 26.1938C41.7494 27.0124 42.2595 27.7522 42.9007 28.369C43.5419 28.9857 44.3011 29.4667 45.1326 29.783C45.9641 30.0994 46.851 30.2446 47.74 30.21C48.5959 30.2487 49.4502 30.1036 50.2454 29.7845C51.0406 29.4654 51.7582 28.9796 52.35 28.36C53.3977 27.2089 53.957 25.6958 53.91 24.14C53.9132 23.761 53.8797 23.3825 53.81 23.01L47.74 23.06ZM93.05 24.46C92.7892 23.6927 92.3015 23.0228 91.6515 22.5388C91.0015 22.0549 90.2198 21.7798 89.41 21.75C88.863 21.7489 88.3216 21.8601 87.8192 22.0765C87.3169 22.293 86.8643 22.6102 86.4894 23.0085C86.1145 23.4069 85.8252 23.8778 85.6396 24.3924C85.4539 24.9069 85.3758 25.4541 85.41 26C85.3978 26.5589 85.4984 27.1145 85.7058 27.6337C85.9132 28.1528 86.2231 28.6249 86.617 29.0216C87.0109 29.4183 87.4807 29.7315 87.9984 29.9426C88.5161 30.1536 89.071 30.2582 89.63 30.25C90.3295 30.2538 91.019 30.084 91.6368 29.7559C92.2546 29.4278 92.7814 28.9516 93.17 28.37L91.72 27.37C91.5036 27.7308 91.1972 28.0292 90.8308 28.236C90.4645 28.4429 90.0507 28.5511 89.63 28.55C89.1968 28.5665 88.7687 28.4523 88.4013 28.2222C88.0339 27.9922 87.7443 27.6569 87.57 27.26L93.26 24.91L93.05 24.46ZM87.25 25.88C87.2297 25.5707 87.2714 25.2604 87.3725 24.9674C87.4736 24.6744 87.6322 24.4045 87.8389 24.1736C88.0457 23.9426 88.2964 23.7553 88.5765 23.6224C88.8566 23.4896 89.1603 23.414 89.47 23.4C89.7925 23.3787 90.1142 23.4527 90.3951 23.6127C90.676 23.7727 90.9037 24.0117 91.05 24.3L87.25 25.88ZM82.63 30H84.5V17.5H82.63V30ZM79.57 22.7H79.5C79.2181 22.3849 78.8729 22.1329 78.4869 21.9606C78.1008 21.7882 77.6827 21.6994 77.26 21.7C76.1672 21.753 75.1366 22.2244 74.382 23.0166C73.6273 23.8087 73.2063 24.8609 73.2063 25.955C73.2063 27.0491 73.6273 28.1013 74.382 28.8934C75.1366 29.6856 76.1672 30.157 77.26 30.21C77.6837 30.2171 78.1039 30.1313 78.4909 29.9585C78.8779 29.7857 79.2224 29.5302 79.5 29.21H79.56V29.82C79.56 31.45 78.69 32.32 77.29 32.32C76.8237 32.3091 76.3712 32.1597 75.9901 31.8908C75.609 31.6219 75.3166 31.2456 75.15 30.81L73.52 31.49C73.8268 32.2364 74.3496 32.874 75.0213 33.3212C75.693 33.7685 76.483 34.0048 77.29 34C79.48 34 81.29 32.71 81.29 29.57V22H79.57V22.7ZM77.43 28.58C76.7849 28.5231 76.1846 28.2267 75.7472 27.7492C75.3099 27.2716 75.0674 26.6475 75.0674 26C75.0674 25.3524 75.3099 24.7284 75.7472 24.2508C76.1846 23.7733 76.7849 23.4768 77.43 23.42C77.7498 23.4364 78.0631 23.5167 78.3514 23.656C78.6398 23.7954 78.8973 23.9911 79.1088 24.2315C79.3204 24.4719 79.4817 24.7523 79.5832 25.056C79.6847 25.3597 79.7244 25.6807 79.7 26C79.7273 26.3207 79.6892 26.6436 79.5881 26.9491C79.4871 27.2547 79.3251 27.5366 79.1119 27.7778C78.8988 28.019 78.639 28.2144 78.3482 28.3523C78.0573 28.4902 77.7416 28.5676 77.42 28.58H77.43ZM101.81 17.5H97.34V30H99.21V25.26H101.82C102.353 25.2983 102.888 25.2264 103.392 25.0487C103.896 24.8711 104.358 24.5915 104.749 24.2275C105.14 23.8635 105.452 23.4227 105.665 22.9328C105.879 22.4429 105.989 21.9143 105.989 21.38C105.989 20.8457 105.879 20.3171 105.665 19.8272C105.452 19.3373 105.14 18.8965 104.749 18.5325C104.358 18.1685 103.896 17.8889 103.392 17.7113C102.888 17.5336 102.353 17.4617 101.82 17.5H101.81ZM101.81 23.5H99.2V19.24H101.85C102.419 19.24 102.964 19.466 103.367 19.8683C103.769 20.2705 103.995 20.8161 103.995 21.385C103.995 21.9539 103.769 22.4995 103.367 22.9017C102.964 23.304 102.419 23.53 101.85 23.53L101.81 23.5ZM113.34 21.7C112.659 21.6593 111.981 21.8184 111.39 22.1577C110.798 22.497 110.319 23.0018 110.01 23.61L111.67 24.3C111.834 23.9983 112.081 23.7508 112.383 23.5874C112.685 23.4241 113.028 23.352 113.37 23.38C113.607 23.3523 113.848 23.3721 114.078 23.4383C114.307 23.5045 114.521 23.6158 114.708 23.7657C114.894 23.9156 115.048 24.101 115.162 24.3112C115.276 24.5214 115.346 24.7522 115.37 24.99V25.12C114.769 24.802 114.1 24.6371 113.42 24.64C111.63 24.64 109.82 25.64 109.82 27.45C109.838 27.8359 109.933 28.2144 110.099 28.563C110.265 28.9117 110.5 29.2234 110.789 29.4798C111.078 29.7362 111.416 29.932 111.782 30.0557C112.148 30.1794 112.535 30.2285 112.92 30.2C113.391 30.2338 113.862 30.1402 114.285 29.9291C114.707 29.718 115.064 29.397 115.32 29H115.38V30H117.18V25.19C117.18 23 115.52 21.73 113.39 21.73L113.34 21.7ZM113.11 28.55C112.5 28.55 111.65 28.24 111.65 27.49C111.65 26.49 112.71 26.16 113.65 26.16C114.244 26.1453 114.831 26.2904 115.35 26.58C115.287 27.1214 115.031 27.622 114.629 27.9895C114.227 28.357 113.705 28.5667 113.16 28.58L113.11 28.55ZM123.74 22L121.6 27.42H121.54L119.32 22H117.32L120.65 29.58L118.75 33.79H120.7L125.82 22H123.74ZM106.93 30H108.8V17.5H106.93V30Z" fill="white"/>
<path d="M10.44 7.53997C10.1141 7.93108 9.94958 8.43177 9.98002 8.93997V31.06C9.94958 31.5682 10.1141 32.0689 10.44 32.46L10.51 32.53L22.9 20.15V19.86L10.51 7.46997L10.44 7.53997Z" fill="url(#paint0_linear_10_18)"/>
<path d="M27 24.28L22.9 20.15V19.86L27 15.72L27.09 15.77L32 18.56C33.4 19.35 33.4 20.65 32 21.45L27.11 24.23L27 24.28Z" fill="url(#paint1_linear_10_18)"/>
<path d="M27.12 24.22L22.9 20L10.44 32.46C10.7254 32.7109 11.0894 32.8541 11.4692 32.8651C11.849 32.876 12.2207 32.754 12.52 32.52L27.13 24.22" fill="url(#paint2_linear_10_18)"/>
<path d="M27.12 15.78L12.51 7.47999C12.2106 7.246 11.839 7.12394 11.4592 7.13489C11.0794 7.14585 10.7154 7.28914 10.43 7.53999L22.9 20L27.12 15.78Z" fill="url(#paint3_linear_10_18)"/>
<path opacity="0.2" d="M27 24.13L12.51 32.38C12.2213 32.5959 11.8705 32.7125 11.51 32.7125C11.1495 32.7125 10.7987 32.5959 10.51 32.38L10.44 32.45L10.51 32.52C10.7981 32.7374 11.1491 32.855 11.51 32.855C11.8709 32.855 12.2219 32.7374 12.51 32.52L27.12 24.22L27 24.13Z" fill="black"/>
<path opacity="0.12" d="M10.44 32.32C10.1141 31.9289 9.94958 31.4282 9.98002 30.92V31.07C9.94958 31.5782 10.1141 32.0789 10.44 32.47L10.51 32.4L10.44 32.32ZM32 21.3L27 24.13L27.09 24.22L32 21.44C32.2786 21.3091 32.5178 21.1071 32.6933 20.8543C32.8689 20.6014 32.9747 20.3068 33 20C32.9438 20.2787 32.8244 20.5408 32.6511 20.7662C32.4777 20.9915 32.255 21.1742 32 21.3Z" fill="black"/>
<path opacity="0.25" d="M12.51 7.62L32 18.7C32.2549 18.8258 32.4776 19.0085 32.651 19.2338C32.8244 19.4592 32.9437 19.7213 33 20C32.9747 19.6932 32.8689 19.3986 32.6933 19.1457C32.5177 18.8929 32.2786 18.6909 32 18.56L12.51 7.48C11.11 6.69 9.96997 7.35 9.96997 8.95V9.1C9.99997 7.49 11.12 6.83 12.51 7.62V7.62Z" fill="white"/>
<path d="M41.34 13V7.00002H43.18C43.5854 6.98172 43.9902 7.04584 44.3701 7.1885C44.75 7.33117 45.0969 7.54941 45.39 7.83002C45.6667 8.1172 45.8821 8.45767 46.0231 8.83073C46.1641 9.20378 46.2277 9.60161 46.21 10C46.2264 10.3991 46.1612 10.7974 46.0185 11.1705C45.8758 11.5436 45.6585 11.8837 45.38 12.17C45.0869 12.4506 44.74 12.6689 44.3601 12.8115C43.9802 12.9542 43.5754 13.0183 43.17 13H41.34ZM42.11 12.26H43.17C43.4712 12.2757 43.7725 12.2307 44.056 12.1276C44.3394 12.0245 44.5993 11.8655 44.82 11.66C45.0295 11.4395 45.1917 11.1786 45.2966 10.8931C45.4015 10.6076 45.4469 10.3037 45.43 10C45.4557 9.69762 45.4152 9.39326 45.3113 9.10809C45.2075 8.82293 45.0428 8.5638 44.8286 8.34873C44.6145 8.13365 44.3561 7.96779 44.0714 7.86267C43.7867 7.75756 43.4825 7.7157 43.18 7.74002H42.11V12.26ZM47.3 13V7.00002H48.07V13H47.3ZM51.13 13.13C50.6693 13.1218 50.2223 12.9716 49.85 12.7C49.4359 12.417 49.1432 11.9887 49.03 11.5L49.73 11.22C49.8102 11.5427 49.9884 11.8327 50.24 12.05C50.4804 12.2695 50.7945 12.3909 51.12 12.39C51.4275 12.4002 51.7297 12.3088 51.98 12.13C52.0955 12.0497 52.189 11.9418 52.2519 11.816C52.3148 11.6902 52.3451 11.5506 52.34 11.41C52.3464 11.2622 52.317 11.115 52.2543 10.981C52.1916 10.8469 52.0975 10.73 51.98 10.64C51.6348 10.4075 51.2528 10.2351 50.85 10.13C50.4019 10.0098 49.9877 9.78735 49.64 9.48002C49.507 9.35021 49.4019 9.19449 49.3314 9.0225C49.2609 8.8505 49.2264 8.66588 49.23 8.48002C49.2304 8.26778 49.276 8.05807 49.364 7.86491C49.4519 7.67175 49.5802 7.49962 49.74 7.36002C50.1035 7.03212 50.581 6.85979 51.07 6.88002C51.5148 6.85986 51.9529 6.99411 52.31 7.26002C52.5953 7.46822 52.8113 7.75742 52.93 8.09002L52.23 8.38002C52.1688 8.16727 52.0386 7.98086 51.86 7.85002C51.6372 7.6897 51.3696 7.60345 51.095 7.60345C50.8205 7.60345 50.5529 7.6897 50.33 7.85002C50.2323 7.9208 50.1531 8.01412 50.0991 8.12206C50.0451 8.23 50.018 8.34936 50.02 8.47002C50.0196 8.58124 50.0457 8.69095 50.0961 8.79008C50.1466 8.8892 50.2199 8.97488 50.31 9.04002C50.5679 9.22413 50.8554 9.3628 51.16 9.45002C51.4116 9.52978 51.6587 9.62325 51.9 9.73002C52.1119 9.82894 52.313 9.94959 52.5 10.09C52.6979 10.231 52.8563 10.4204 52.96 10.64C53.0698 10.8817 53.1244 11.1447 53.12 11.41C53.125 11.6809 53.0631 11.9487 52.94 12.19C52.8278 12.4074 52.6627 12.5931 52.46 12.73C52.2635 12.865 52.0477 12.9695 51.82 13.04C51.5956 13.1034 51.3632 13.1337 51.13 13.13V13.13ZM55 13H54.23V7.00002H56.23C56.7193 6.99371 57.1921 7.1764 57.55 7.51002C57.727 7.67298 57.8683 7.87087 57.9649 8.09118C58.0615 8.31149 58.1114 8.54945 58.1114 8.79002C58.1114 9.03059 58.0615 9.26855 57.9649 9.48886C57.8683 9.70918 57.727 9.90706 57.55 10.07C57.1927 10.4045 56.7195 10.5874 56.23 10.58H55V13ZM55 9.83002H56.3C56.4463 9.83544 56.5919 9.8087 56.7267 9.75168C56.8615 9.69466 56.9821 9.60875 57.08 9.50002C57.1768 9.40674 57.2538 9.2949 57.3064 9.17119C57.359 9.04748 57.3861 8.91444 57.3861 8.78002C57.3861 8.6456 57.359 8.51256 57.3064 8.38885C57.2538 8.26515 57.1768 8.15331 57.08 8.06002C56.9821 7.95129 56.8615 7.86539 56.7267 7.80837C56.5919 7.75135 56.4463 7.7246 56.3 7.73002H55V9.83002ZM64 12.22C63.4154 12.8014 62.6245 13.1277 61.8 13.1277C60.9756 13.1277 60.1846 12.8014 59.6 12.22C59.0318 11.6185 58.7152 10.8225 58.7152 9.99502C58.7152 9.16758 59.0318 8.3715 59.6 7.77002C59.8882 7.47977 60.2309 7.2494 60.6085 7.09219C60.9861 6.93499 61.391 6.85405 61.8 6.85405C62.209 6.85405 62.614 6.93499 62.9916 7.09219C63.3691 7.2494 63.7119 7.47977 64 7.77002C64.5705 8.37035 64.8886 9.16687 64.8886 9.99502C64.8886 10.8232 64.5705 11.6197 64 12.22ZM60.17 11.72C60.603 12.1511 61.1891 12.3932 61.8 12.3932C62.411 12.3932 62.9971 12.1511 63.43 11.72C63.8573 11.249 64.0939 10.6359 64.0939 10C64.0939 9.36413 63.8573 8.751 63.43 8.28002C62.9971 7.8489 62.411 7.60685 61.8 7.60685C61.1891 7.60685 60.603 7.8489 60.17 8.28002C59.7428 8.751 59.5061 9.36413 59.5061 10C59.5061 10.6359 59.7428 11.249 60.17 11.72V11.72ZM66 13V7.00002H66.94L69.86 11.67V7.00002H70.63V13H69.83L66.78 8.11002V13H66ZM72 13V7.00002H72.77V13H72ZM72.72 6.53002H72.05L72.49 5.46002H73.33L72.72 6.53002ZM75.64 13L73.53 7.00002H74.38L76 11.87L77.77 7.00002H78.62L76.44 13H75.64ZM83 7.74002H80.26V9.64002H82.72V10.36H80.26V12.26H83V13H79.5V7.00002H83V7.74002ZM84.2 13V7.00002H85V12.26H87.6V13H84.2ZM90.55 13V7.00002H91.49L94.41 11.67V7.00002H95.18V13H94.38L91.33 8.11002V13H90.55ZM101.46 12.22C100.875 12.8014 100.084 13.1277 99.26 13.1277C98.4356 13.1277 97.6446 12.8014 97.06 12.22C96.4918 11.6185 96.1752 10.8225 96.1752 9.99502C96.1752 9.16758 96.4918 8.3715 97.06 7.77002C97.3482 7.47977 97.6909 7.2494 98.0685 7.09219C98.4461 6.93499 98.851 6.85405 99.26 6.85405C99.669 6.85405 100.074 6.93499 100.452 7.09219C100.829 7.2494 101.172 7.47977 101.46 7.77002C102.031 8.37035 102.349 9.16687 102.349 9.99502C102.349 10.8232 102.031 11.6197 101.46 12.22V12.22ZM97.63 11.72C98.063 12.1511 98.6491 12.3932 99.26 12.3932C99.871 12.3932 100.457 12.1511 100.89 11.72C101.317 11.249 101.554 10.6359 101.554 10C101.554 9.36413 101.317 8.751 100.89 8.28002C100.457 7.8489 99.871 7.60685 99.26 7.60685C98.6491 7.60685 98.063 7.8489 97.63 8.28002C97.2028 8.751 96.9661 9.36413 96.9661 10C96.9661 10.6359 97.2028 11.249 97.63 11.72Z" fill="white" stroke="white" stroke-width="0.2" stroke-miterlimit="10"/>
<defs>
<linearGradient id="paint0_linear_10_18" x1="21.8" y1="8.70997" x2="5.02002" y2="25.49" gradientUnits="userSpaceOnUse">
<stop stop-color="#00A0FF"/>
<stop offset="0.01" stop-color="#00A1FF"/>
<stop offset="0.26" stop-color="#00BEFF"/>
<stop offset="0.51" stop-color="#00D2FF"/>
<stop offset="0.76" stop-color="#00DFFF"/>
<stop offset="1" stop-color="#00E3FF"/>
</linearGradient>
<linearGradient id="paint1_linear_10_18" x1="33.83" y1="20" x2="9.64003" y2="20" gradientUnits="userSpaceOnUse">
<stop stop-color="#FFE000"/>
<stop offset="0.41" stop-color="#FFBD00"/>
<stop offset="0.78" stop-color="#FFA500"/>
<stop offset="1" stop-color="#FF9C00"/>
</linearGradient>
<linearGradient id="paint2_linear_10_18" x1="24.83" y1="22.3" x2="2.07" y2="45.05" gradientUnits="userSpaceOnUse">
<stop stop-color="#FF3A44"/>
<stop offset="1" stop-color="#C31162"/>
</linearGradient>
<linearGradient id="paint3_linear_10_18" x1="7.29999" y1="0.179987" x2="17.46" y2="10.34" gradientUnits="userSpaceOnUse">
<stop stop-color="#32A071"/>
<stop offset="0.07" stop-color="#2DA771"/>
<stop offset="0.48" stop-color="#15CF74"/>
<stop offset="0.8" stop-color="#06E775"/>
<stop offset="1" stop-color="#00F076"/>
</linearGradient>
</defs>
</svg>
